<?xml version="1.0" encoding="utf-8"?>
<!-- Generator: Adobe Illustrator 16.0.0, SVG Export Plug-In . SVG Version: 6.00 Build 0)  -->
<!DOCTYPE svg PUBLIC "-//W3C//DTD SVG 1.1//EN" "http://www.w3.org/Graphics/SVG/1.1/DTD/svg11.dtd">
<svg version="1.1" id="Layer_1" xmlns="http://www.w3.org/2000/svg" xmlns:xlink="http://www.w3.org/1999/xlink" x="0px" y="0px"
	 width="50px" height="66.681px" viewBox="271.781 388.372 50 66.681" enable-background="new 271.781 388.372 50 66.681"
	 xml:space="preserve">
<path d="M320.179,428.545c-0.642-0.82-1.376-1.287-2.079-1.56h0.085v-31.689c0.001-1.141,0.002-3.265-1.654-4.853
	c-1.455-1.394-3.149-2.071-5.18-2.071c-2.703,0-4.251,1.182-5.18,2.072c-1.655,1.588-1.654,3.712-1.654,4.854v15.84
	c-1.206-0.77-2.655-1.208-4.078-1.208c-1.89,0-3.826,0.775-5.179,2.071c-0.098,0.094-0.19,0.189-0.277,0.285
	c-0.087-0.095-0.178-0.19-0.276-0.284c-1.354-1.297-3.29-2.072-5.18-2.072c-1.422,0-2.871,0.439-4.078,1.209v-12.045
	c0-1.141,0.001-3.264-1.655-4.852c-1.436-1.374-3.178-2.071-5.179-2.071c-2.031,0-3.725,0.678-5.179,2.072
	c-1.656,1.587-1.656,3.712-1.655,4.854v38.329c0,2.081,0,3.125,0.265,5.48c0.564,4.998,2.338,7.974,5.753,9.65
	c3.81,1.866,8.475,2.496,18.487,2.496c10.102,0,14.081-0.955,17.226-2.497c3.416-1.675,5.19-4.651,5.756-9.65
	c0.199-1.773,0.248-2.804,0.26-4.093c0.002-0.002,0.003-0.003,0.005-0.005c1.28-1.271,2.115-3.144,2.233-5.011
	C321.884,431.927,321.291,429.965,320.179,428.545z M319.015,433.622c-0.091,1.429-0.796,2.604-1.424,3.228
	c-0.465,0.461-0.96,0.648-1.708,0.648c-0.207,0-0.415-0.014-0.616-0.026l-10.658-0.568l-0.036-0.003
	c-0.818-0.052-1.591-0.102-2.223-0.91c-0.546-0.697-1.097-1.951-1.008-3.379c0.092-1.429,0.796-2.604,1.426-3.228
	c0.464-0.461,0.959-0.648,1.707-0.648c0.207,0,0.414,0.014,0.614,0.026l0.055,0.003c0.092,0.005,9.227,0.479,10.599,0.566
	l0.04,0.003c0.818,0.051,1.591,0.1,2.225,0.91C318.553,430.941,319.105,432.195,319.015,433.622z M307.274,416.563v-21.267
	c0-0.882-0.001-2.09,0.805-2.862c0.674-0.646,1.59-1.306,3.272-1.306c1.338,0,2.317,0.391,3.271,1.305
	c0.807,0.772,0.807,1.979,0.806,2.861v31.256c-1.596-0.092-5.679-0.307-8.154-0.436v-9.38V416.563z M296.363,416.559
	c0-0.883-0.001-1.796,0.805-2.567c0.658-0.631,1.863-1.305,3.271-1.305c1.41,0,2.615,0.674,3.272,1.305
	c0.806,0.772,0.806,1.687,0.806,2.571v9.416c-0.015,0-0.027,0-0.042,0c-1.473,0-2.667,0.474-3.648,1.447
	c-0.592,0.587-1.087,1.304-1.462,2.088c0-0.001,0.001-0.003,0.002-0.004c-0.001,0.001-0.002,0.003-0.002,0.004
	c-0.358,0.75-0.605,1.562-0.718,2.385c-0.615-0.252-1.126-0.602-1.479-0.939c-0.806-0.772-0.805-1.686-0.805-2.568V416.559
	L296.363,416.559z M285.45,416.563c0-0.884,0-1.798,0.805-2.571c0.659-0.631,1.865-1.305,3.273-1.305
	c1.409,0,2.614,0.674,3.272,1.305c0.807,0.772,0.807,1.687,0.806,2.571v11.825c0,0.884,0,1.797-0.806,2.57
	c-0.659,0.631-1.864,1.304-3.272,1.304c-1.408,0-2.614-0.674-3.272-1.303c-0.806-0.773-0.806-1.688-0.806-2.571V416.563
	L285.45,416.563z M316.529,442.596c-0.57,5.046-2.459,6.614-4.229,7.483c-2.791,1.368-6.443,2.216-16.013,2.216
	c-9.534,0-13.893-0.56-17.273-2.216c-1.771-0.869-3.659-2.438-4.228-7.483c-0.249-2.201-0.249-3.132-0.248-5.171v-38.33
	c0-0.882,0-2.089,0.806-2.862c0.942-0.903,1.951-1.305,3.271-1.305c1.284,0,2.354,0.427,3.272,1.305
	c0.806,0.772,0.805,1.979,0.805,2.859v17.471v0.171v11.651c0,1.112,0,2.974,1.656,4.563c1.354,1.296,3.291,2.069,5.179,2.069
	c1.89,0,3.826-0.773,5.18-2.07c0.098-0.095,0.189-0.189,0.276-0.285c0.087,0.096,0.179,0.191,0.277,0.285
	c0.965,0.925,2.227,1.581,3.556,1.883c-0.001-0.003-0.001-0.005-0.002-0.008c0.26,1.054,0.727,2.049,1.364,2.864
	c1.394,1.783,3.231,1.9,4.218,1.964l10.665,0.569l0.028,0.002c0.233,0.015,0.498,0.032,0.794,0.032c0.3,0,0.586-0.021,0.862-0.061
	C316.715,440.83,316.654,441.478,316.529,442.596z"/>
</svg>
