<?xml version="1.0" encoding="utf-8"?>
<!DOCTYPE svg PUBLIC "-//W3C//DTD SVG 1.1//EN" "http://www.w3.org/Graphics/SVG/1.1/DTD/svg11.dtd">
<svg version="1.1" id="Layer_1" xmlns="http://www.w3.org/2000/svg" xmlns:xlink="http://www.w3.org/1999/xlink" x="0px" y="0px"
	 width="595.28px" height="841.89px" viewBox="0 0 595.28 841.89" enable-background="new 0 0 595.28 841.89" xml:space="preserve">
<path d="M466.519,471.277c-4.655-5.951-9.986-9.34-15.086-11.313h0.622V230.079c0.003-8.277,0.007-23.683-12.005-35.199
	c-10.557-10.112-22.849-15.027-37.577-15.027c-19.609,0-30.833,8.576-37.576,15.033c-12.005,11.518-12,26.927-11.998,35.206v114.914
	c-8.752-5.584-19.261-8.767-29.582-8.767c-13.708,0-27.754,5.618-37.57,15.025c-0.711,0.682-1.377,1.371-2.007,2.064
	c-0.629-0.693-1.294-1.381-2.005-2.062c-9.817-9.41-23.863-15.028-37.573-15.028c-10.316,0-20.824,3.185-29.583,8.772V257.63
	c0.002-8.275,0.007-23.679-12.004-35.193c-10.415-9.97-23.055-15.025-37.568-15.025c-14.732,0-27.022,4.917-37.573,15.03
	c-12.015,11.518-12.011,26.929-12.009,35.209v278.051c-0.002,15.094-0.003,22.67,1.925,39.755
	c4.089,36.255,16.959,57.844,41.737,70.003c27.64,13.541,61.48,18.111,134.107,18.111c73.282,0,102.145-6.931,124.962-18.113
	c24.777-12.153,37.653-33.741,41.75-70.006c1.445-12.866,1.801-20.343,1.888-29.695c0.011-0.011,0.022-0.021,0.033-0.031
	c9.286-9.216,15.344-22.803,16.204-36.352C478.884,495.82,474.579,481.579,466.519,471.277z M458.071,508.111
	c-0.658,10.358-5.769,18.888-10.328,23.412c-3.371,3.342-6.96,4.704-12.388,4.704c-1.505,0-3.015-0.098-4.475-0.191l-77.313-4.127
	l-0.265-0.017c-5.933-0.38-11.536-0.739-16.124-6.606c-3.958-5.058-7.955-14.154-7.305-24.51
	c0.659-10.364,5.77-18.887,10.339-23.413c3.367-3.342,6.956-4.705,12.386-4.705c1.497,0,2.999,0.097,4.451,0.189l0.396,0.024
	c0.668,0.035,66.935,3.479,76.887,4.111l0.29,0.018c5.937,0.371,11.545,0.721,16.144,6.6
	C454.725,488.659,458.722,497.756,458.071,508.111z M372.898,384.359V230.086c-0.002-6.397-0.004-15.158,5.837-20.762
	c4.892-4.684,11.536-9.472,23.737-9.472c9.712,0,16.813,2.833,23.739,9.467c5.848,5.606,5.845,14.361,5.843,20.753v226.74
	c-11.579-0.664-41.199-2.223-59.156-3.162v-68.047V384.359z M293.745,384.333c-0.002-6.406-0.004-13.03,5.838-18.627
	c4.775-4.577,13.518-9.467,23.733-9.467c10.226,0,18.968,4.89,23.741,9.466c5.845,5.604,5.843,12.235,5.841,18.649v68.309
	c-0.102,0-0.197-0.004-0.3-0.004c-10.688,0-19.349,3.438-26.467,10.503c-4.295,4.254-7.889,9.451-10.609,15.144
	c0.005-0.011,0.01-0.021,0.015-0.032c-0.005,0.011-0.01,0.022-0.016,0.033c-2.599,5.438-4.387,11.327-5.201,17.3
	c-4.462-1.831-8.175-4.368-10.735-6.82c-5.844-5.603-5.842-12.224-5.84-18.626V384.333z M310.029,507.789 M214.579,384.358
	c-0.002-6.415-0.003-13.048,5.84-18.649c4.78-4.578,13.528-9.47,23.743-9.47c10.217,0,18.959,4.89,23.735,9.469
	c5.851,5.604,5.85,12.236,5.848,18.649v85.778c0.002,6.41,0.003,13.038-5.846,18.646c-4.777,4.574-13.521,9.462-23.737,9.462
	c-10.213,0-18.964-4.89-23.736-9.455c-5.85-5.613-5.849-12.243-5.847-18.654V384.358z M440.032,573.213
	c-4.136,36.604-17.831,47.983-30.681,54.286c-20.243,9.922-46.736,16.071-116.157,16.071c-69.161,0-100.78-4.056-125.302-16.069
	c-12.849-6.305-26.54-17.686-30.668-54.288c-1.802-15.966-1.801-22.717-1.799-37.51V257.645c-0.002-6.396-0.004-15.155,5.849-20.765
	c6.831-6.548,14.15-9.468,23.733-9.468c9.314,0,17.079,3.099,23.733,9.468c5.844,5.603,5.841,14.354,5.839,20.745v126.74v1.241
	v84.523c-0.002,8.068-0.006,21.572,12.011,33.102c9.827,9.401,23.873,15.014,37.572,15.014c13.705,0,27.75-5.613,37.573-15.021
	c0.71-0.682,1.376-1.37,2.005-2.063c0.63,0.694,1.297,1.385,2.009,2.067c7.001,6.704,16.152,11.467,25.792,13.657
	c-0.005-0.02-0.009-0.038-0.013-0.058c1.885,7.643,5.268,14.864,9.897,20.781c10.111,12.932,23.439,13.786,30.6,14.244l77.361,4.13
	l0.206,0.013c1.693,0.109,3.613,0.233,5.764,0.233c2.168,0,4.249-0.149,6.255-0.434C441.391,560.397,440.943,565.1,440.032,573.213z
	"/>
</svg>
