<svg xmlns="http://www.w3.org/2000/svg" viewBox="0 0 180 180" fill='#767a7aef' fill-opacity='0.05' fill-rule='evenodd'>
  <path
    d="M175.2 0h-25.8c1 2.9 2.6 5.6 4.6 7.9-1.8 1.8-3 4.3-3 7.1 0 5.5 4.5 10 10 10 1.7 0 3 1.3 3 3v4h16V0h-4.8c.5.9.8 1.9.8 3 0 3.3-2.7 6-6 6s-6-2.7-6-6c0-1.1.3-2.1.8-3h10.4-13.7c-.3.9-.5 1.9-.5 3v4c-4.4 0-8 3.6-8 8s3.6 8 8 8c2.8 0 5 2.2 5 5v2h4v-4h2v4h4v-4h2v4h2V0h-4.8zm-15.8 0c-.3 1-.4 2-.4 3v2.2c-1.2.3-2.4.7-3.4 1.4-1.7-1.9-3.1-4.2-4.1-6.6h7.9zM180 17h-3l2.1-10h.9v10zm-30.6 163c-.9-2.5-1.4-5.2-1.4-8 0-13.3 10.7-24 24-24h8v32h-30.6zm12.1 0c.5-1.4 1.3-2.7 2.4-3.7l-1.3-1.5c-1.5 1.4-2.6 3.1-3.2 5.1h-7.9c-1-2.5-1.5-5.2-1.5-8 0-12.2 9.8-22 22-22h8v30h-18.5v.1zm13.7 0c-1-1.8-3-3-5.2-3s-4.2 1.2-5.2 3h10.4zM0 148h8c13.2 0 24 10.7 24 24 0 2.8-.5 5.5-1.4 8H0v-32zm0 2h8c12.2 0 22 9.8 22 22 0 2.8-.5 5.5-1.5 8h-7.9c-.6-2-1.7-3.8-3.2-5.1l-1.3 1.5c1.1 1 1.9 2.2 2.4 3.7H0V150zm15.2 30c-1-1.8-3-3-5.2-3s-4.2 1.2-5.2 3h10.4zM0 32h16v-4c0-1.7 1.3-3 3-3 5.5 0 10-4.5 10-10 0-2.8-1.1-5.3-3-7.1C28 5.6 29.6 3 30.6 0H0v32zm0-2h2v-4h2v4h4v-4h2v4h4v-2c0-2.8 2.2-5 5-5 4.4 0 8-3.6 8-8s-3.6-8-8-8V3c0-1.1-.2-2.1-.5-3H0v30zM28.5 0c-1 2.4-2.3 4.7-4.1 6.6-1-.7-2.2-1.2-3.4-1.4V3c0-1-.1-2-.4-3h7.9zM0 17h3L.9 7H0v10zM15.2 0c.5.9.8 1.9.8 3 0 3.3-2.7 6-6 6S4 6.3 4 3c0-1.1.3-2.1.8-3h10.4zM109 115c-1.7 0-3 1.3-3 3v4H74v-4c0-1.7-1.3-3-3-3-5.5 0-10-4.5-10-10 0-2.8 1.1-5.3 3-7.1-3.7-4.2-6-9.8-6-15.9 0-13.3 10.7-24 24-24h16c13.2 0 24 10.7 24 24 0 6.1-2.3 11.6-6 15.9 1.8 1.8 3 4.3 3 7.1 0 5.5-4.5 10-10 10zm0-2c-2.8 0-5 2.2-5 5v2h-4v-4h-2v4h-4v-4h-2v4h-4v-4h-2v4h-4v-4h-2v4h-4v-2c0-2.8-2.2-5-5-5-4.4 0-8-3.6-8-8s3.6-8 8-8v-4c0-2.6 1.1-5 2.9-6.7l-1.3-1.5c-2.2 2-3.6 4.9-3.6 8.1v2.2c-1.2.3-2.4.7-3.4 1.4-3.5-3.9-5.6-9-5.6-14.6 0-12.2 9.8-22 22-22h16c12.2 0 22 9.8 22 22 0 5.6-2.1 10.7-5.6 14.6-1-.7-2.2-1.2-3.4-1.4V93c0-3.2-1.4-6.1-3.6-8.1l-1.3 1.5c1.8 1.6 2.9 4 2.9 6.7v4c4.4 0 8 3.6 8 8 0 4.3-3.6 7.9-8 7.9zM90.9 97l2.1 10h-6l2.1-10h1.8zM80 99c3.3 0 6-2.7 6-6s-2.7-6-6-6-6 2.7-6 6 2.7 6 6 6zm20 0c3.3 0 6-2.7 6-6s-2.7-6-6-6-6 2.7-6 6 2.7 6 6 6z" />
</svg>
