<svg xmlns="http://www.w3.org/2000/svg" width="595.28" height="841.89" viewBox="0 0 595.28 841.89"><path d="M466.52 471.277c-4.656-5.95-9.987-9.34-15.087-11.313h.622V230.08c.003-8.278.007-23.684-12.005-35.2-10.557-10.112-22.85-15.027-37.577-15.027-19.61 0-30.833 8.576-37.576 15.033-12.005 11.518-12 26.927-11.998 35.206v114.914c-8.753-5.584-19.262-8.767-29.583-8.767-13.708 0-27.754 5.617-37.57 15.024-.71.682-1.377 1.37-2.007 2.064-.63-.693-1.294-1.38-2.005-2.062-9.817-9.41-23.863-15.028-37.573-15.028-10.316 0-20.824 3.185-29.583 8.772v-87.38c0-8.275.006-23.68-12.005-35.193-10.415-9.97-23.055-15.025-37.568-15.025-14.732 0-27.022 4.917-37.573 15.03-12.015 11.518-12.01 26.93-12.01 35.21V535.7c0 15.094-.002 22.67 1.926 39.755 4.09 36.255 16.96 57.844 41.737 70.003 27.64 13.54 61.48 18.11 134.107 18.11 73.282 0 102.145-6.93 124.962-18.112 24.777-12.153 37.653-33.74 41.75-70.006 1.445-12.866 1.8-20.343 1.888-29.695l.033-.03c9.286-9.217 15.344-22.804 16.204-36.353.854-13.554-3.45-27.795-11.51-38.097zm-8.45 36.834c-.657 10.36-5.768 18.89-10.327 23.413-3.37 3.342-6.96 4.704-12.388 4.704-1.505 0-3.015-.098-4.475-.19l-77.313-4.128-.265-.018c-5.933-.38-11.536-.74-16.124-6.606-3.958-5.058-7.955-14.154-7.305-24.51.66-10.364 5.77-18.887 10.34-23.413 3.366-3.342 6.955-4.705 12.385-4.705 1.497 0 3 .097 4.45.19l.397.023c.668.036 66.935 3.48 76.887 4.112l.29.018c5.937.37 11.545.72 16.144 6.6 3.96 5.06 7.956 14.156 7.305 24.51zM372.9 384.36V230.085c-.002-6.397-.004-15.158 5.837-20.762 4.892-4.684 11.536-9.472 23.737-9.472 9.712 0 16.813 2.833 23.74 9.467 5.847 5.605 5.844 14.36 5.842 20.752v226.74c-11.58-.664-41.2-2.223-59.156-3.162V384.36zm-79.153-.027c-.002-6.406-.004-13.03 5.838-18.627 4.775-4.577 13.518-9.467 23.733-9.467 10.226 0 18.968 4.89 23.74 9.465 5.846 5.604 5.844 12.235 5.842 18.65v68.308c-.102 0-.197-.004-.3-.004-10.688 0-19.35 3.437-26.467 10.502-4.294 4.254-7.888 9.45-10.608 15.144l.015-.032-.016.033c-2.598 5.438-4.386 11.327-5.2 17.3-4.462-1.83-8.175-4.368-10.735-6.82-5.844-5.603-5.842-12.224-5.84-18.626v-85.827zM310.03 507.79m-95.45-123.432c-.003-6.415-.004-13.048 5.84-18.65 4.78-4.577 13.527-9.47 23.742-9.47 10.217 0 18.96 4.89 23.735 9.47 5.85 5.604 5.85 12.236 5.848 18.65v85.777c.002 6.41.003 13.038-5.846 18.646-4.778 4.575-13.522 9.463-23.738 9.463-10.213 0-18.964-4.89-23.736-9.455-5.85-5.613-5.85-12.243-5.847-18.654v-85.776zM440.03 573.213c-4.136 36.604-17.83 47.983-30.68 54.286-20.244 9.92-46.737 16.07-116.158 16.07-69.16 0-100.78-4.056-125.302-16.07-12.85-6.304-26.54-17.685-30.668-54.287-1.802-15.966-1.8-22.717-1.8-37.51V257.645c0-6.396-.003-15.155 5.85-20.765 6.83-6.548 14.15-9.468 23.733-9.468 9.314 0 17.08 3.1 23.733 9.468 5.844 5.603 5.84 14.354 5.84 20.745V470.13c-.003 8.067-.007 21.57 12.01 33.1 9.827 9.402 23.873 15.015 37.572 15.015 13.705 0 27.75-5.613 37.573-15.02.71-.683 1.376-1.37 2.005-2.064.63.695 1.297 1.386 2.01 2.068 7 6.704 16.15 11.467 25.79 13.657l-.012-.058c1.885 7.643 5.268 14.864 9.897 20.78 10.11 12.933 23.44 13.787 30.6 14.245l77.36 4.13.207.013c1.693.11 3.613.233 5.764.233 2.168 0 4.25-.15 6.255-.434-.22 4.603-.667 9.306-1.578 17.42z"/></svg>