<svg xmlns="http://www.w3.org/2000/svg" width="50" height="66.681" viewBox="271.781 388.372 50 66.681" enable-background="new 271.781 388.372 50 66.681"><path d="M320.18 428.545c-.643-.82-1.377-1.287-2.08-1.56h.085v-31.69c0-1.14.002-3.264-1.654-4.852-1.454-1.394-3.148-2.07-5.18-2.07-2.702 0-4.25 1.18-5.18 2.07-1.654 1.59-1.653 3.713-1.653 4.855v15.84c-1.206-.77-2.655-1.208-4.078-1.208-1.89 0-3.827.775-5.18 2.07-.098.095-.19.19-.277.286-.087-.095-.178-.19-.276-.284-1.354-1.297-3.29-2.072-5.18-2.072-1.422 0-2.87.44-4.078 1.21v-12.046c0-1.14 0-3.264-1.656-4.852-1.436-1.374-3.178-2.07-5.18-2.07-2.03 0-3.724.677-5.178 2.07-1.656 1.588-1.656 3.713-1.655 4.855v38.33c0 2.08 0 3.124.266 5.48.564 4.997 2.338 7.973 5.753 9.65 3.81 1.865 8.474 2.495 18.486 2.495 10.102 0 14.08-.955 17.226-2.497 3.416-1.675 5.19-4.65 5.756-9.65.2-1.773.248-2.804.26-4.093l.005-.005c1.28-1.27 2.115-3.144 2.233-5.01.118-1.87-.475-3.832-1.587-5.252zm-1.165 5.077c-.09 1.43-.796 2.604-1.424 3.228-.464.46-.96.648-1.707.648-.207 0-.415-.014-.616-.026l-10.658-.568-.037-.003c-.818-.05-1.59-.1-2.223-.91-.546-.696-1.097-1.95-1.008-3.378.092-1.43.796-2.604 1.426-3.228.464-.46.96-.648 1.707-.648.207 0 .414.014.614.026l.054.003c.092.005 9.227.48 10.6.566l.04.004c.817.05 1.59.1 2.224.91.545.697 1.097 1.95 1.007 3.378zm-11.74-17.06v-21.266c0-.882-.002-2.09.804-2.862.673-.646 1.59-1.306 3.27-1.306 1.34 0 2.318.39 3.272 1.305.807.772.807 1.98.806 2.86v31.257c-1.596-.092-5.68-.307-8.154-.436v-9.55zm-10.912-.003c0-.884 0-1.797.805-2.568.658-.63 1.863-1.305 3.27-1.305 1.41 0 2.616.674 3.273 1.305.807.772.807 1.687.807 2.57v9.417h-.042c-1.473 0-2.667.473-3.648 1.446-.592.587-1.087 1.304-1.462 2.088 0 0 0-.003.002-.004l-.002.004c-.358.75-.605 1.562-.718 2.385-.615-.253-1.126-.603-1.48-.94-.805-.772-.804-1.686-.804-2.568V416.56zm-10.913.003c0-.884 0-1.798.805-2.57.66-.632 1.865-1.306 3.273-1.306 1.41 0 2.614.674 3.272 1.305.807.772.807 1.687.806 2.57v11.826c0 .884 0 1.797-.806 2.57-.66.63-1.864 1.304-3.272 1.304-1.408 0-2.614-.674-3.272-1.303-.806-.774-.806-1.69-.806-2.572v-11.825zm31.08 26.033c-.57 5.046-2.46 6.614-4.23 7.483-2.79 1.367-6.443 2.215-16.013 2.215-9.534 0-13.893-.56-17.273-2.216-1.77-.87-3.66-2.44-4.228-7.484-.25-2.2-.25-3.132-.248-5.17v-38.33c0-.883 0-2.09.806-2.863.942-.903 1.95-1.305 3.27-1.305 1.285 0 2.355.427 3.273 1.305.806.772.805 1.98.805 2.86v29.292c0 1.112 0 2.974 1.656 4.563 1.354 1.296 3.29 2.07 5.18 2.07 1.89 0 3.825-.774 5.18-2.07.097-.096.188-.19.275-.286.087.096.18.19.277.285.965.925 2.227 1.58 3.556 1.883 0-.003 0-.005-.002-.008.26 1.054.727 2.05 1.364 2.864 1.394 1.783 3.23 1.9 4.218 1.964l10.665.57h.03c.232.016.497.033.793.033.3 0 .586-.02.862-.06-.03.637-.09 1.285-.216 2.403z"/></svg>